<?xml version="1.0"?>
<svg xmlns="http://www.w3.org/2000/svg" xmlns:xlink="http://www.w3.org/1999/xlink" version="1.1" id="Layer_1" x="0px" y="0px" viewBox="0 0 512.128 512.128" style="enable-background:new 0 0 512.128 512.128;" xml:space="preserve" width="auto" height="auto" class=""><g><g>
	<path style="fill:#708497" d="M462.761,168.435c-2.222,0-4.443-0.85-6.135-2.543l-18.406-18.415   c-3.393-3.393-3.393-8.878,0-12.271c3.384-3.393,8.886-3.393,12.271,0l18.406,18.415c3.393,3.393,3.393,8.878,0,12.271   C467.204,167.585,464.982,168.435,462.761,168.435" data-original="#7383BF" class="active-path" data-old_color="#7383BF"/>
	<path style="fill:#35495C" d="M20.953,491.112L20.953,491.112L20.953,491.112c-3.888-42.774,11.42-85.053,41.793-115.426   L413.674,24.758l73.633,73.633L136.378,449.319C106.005,479.692,63.726,495,20.953,491.112" data-original="#434C6D" class="" data-old_color="#434C6D"/>
	<path style="fill:#708497" d="M481.171,92.255l-61.362-61.362l22.25-22.25c11.438-11.438,29.974-11.438,41.403,0l20.185,20.176   c11.307,11.316,11.307,29.653,0,40.96L481.171,92.255z" data-original="#7383BF" class="active-path" data-old_color="#7383BF"/>
	<polygon style="fill:#35495C" points="340.038,319.297 321.632,300.891 493.447,129.076 511.853,147.482  " data-original="#434C6D" class="" data-old_color="#434C6D"/>
	<g>
		<polygon style="fill:#708497" points="143.678,368.387 106.857,331.567 358.449,79.984 395.261,116.805   " data-original="#7383BF" class="active-path" data-old_color="#7383BF"/>
		<path style="fill:#708497" d="M20.953,491.112c42.774,3.888,85.053-11.42,115.426-41.793l1.449-1.441    c-15.62-7.454-30.312-17.469-43.242-30.399c-12.93-12.93-22.945-27.622-30.399-43.242l-1.441,1.449    C32.373,406.059,17.065,448.338,20.953,491.112" data-original="#7383BF" class="active-path" data-old_color="#7383BF"/>
	</g>
	<path style="fill:#35495C" d="M8.68,512.063c-2.222,0-4.443-0.85-6.135-2.543c-3.393-3.393-3.393-8.878,0-12.271l12.271-12.271   c3.393-3.393,8.878-3.393,12.271,0s3.393,8.878,0,12.271L14.815,509.52C13.123,511.212,10.902,512.063,8.68,512.063" data-original="#434C6D" class="" data-old_color="#434C6D"/>
</g></g> </svg>
