<?xml version="1.0" encoding="iso-8859-1"?>
<!-- Generator: Adobe Illustrator 19.0.0, SVG Export Plug-In . SVG Version: 6.00 Build 0)  -->
<svg version="1.1" id="Capa_1" xmlns="http://www.w3.org/2000/svg" xmlns:xlink="http://www.w3.org/1999/xlink" x="0px" y="0px"
	 viewBox="0 0 512 512" style="enable-background:new 0 0 512 512;" xml:space="preserve">
<path style="fill:#9BA7AF;" d="M314.182,45.923h-128c-6.982,0-11.636,4.655-11.636,11.636s4.655,11.636,11.636,11.636h128
	c6.982,0,11.636,4.655,11.636,11.636c0,6.982-4.655,11.636-11.636,11.636h-34.909c-19.782,0-34.909,15.127-34.909,34.909v23.273
	c-6.982,0-11.636,4.655-11.636,11.636c0,6.982,4.655,11.636,11.636,11.636h23.273c6.982,0,11.636-4.655,11.636-11.636
	c0-6.982-4.655-11.636-11.636-11.636v-23.273c0-6.982,4.655-11.636,11.636-11.636h34.909c19.782,0,34.909-15.127,34.909-34.909
	S333.964,45.923,314.182,45.923z"/>
<path style="fill:#35495C;" d="M506.182,357.777l-29.091-139.636c-6.982-32.582-34.909-55.855-68.655-55.855H103.564
	c-33.745,0-61.673,23.273-68.655,55.855L5.818,357.777C2.327,374.068,0,389.196,0,405.486c0,26.764,16.291,52.364,43.055,58.182
	c27.927,5.818,53.527-8.145,64-33.745c0,0,10.473-24.436,17.455-43.055c3.491-8.145,12.8-9.309,18.618-3.491
	c8.145,6.982,19.782,11.636,31.418,11.636c22.109,0,40.727-16.291,45.382-37.236c1.164-5.818,5.818-9.309,11.636-9.309h48.873
	c5.818,0,10.473,4.655,11.636,9.309c4.655,20.945,23.273,37.236,45.382,37.236c11.636,0,23.273-4.655,31.418-12.8
	c5.818-5.818,15.127-3.491,18.618,3.491c6.982,18.618,17.455,43.055,17.455,43.055c10.473,24.436,36.073,39.564,64,33.745
	C495.709,456.686,512,431.086,512,404.323C512,389.196,509.673,374.068,506.182,357.777z"/>
<g>
	<path style="fill:#123247;" d="M375.855,363.596c-3.491-8.145-12.8-9.309-18.618-3.491c-8.145,6.982-19.782,11.636-31.418,11.636
		c-13.964,0-25.6-5.818-34.909-15.127c0,1.164,0,1.164,1.164,2.327c4.655,20.945,23.273,37.236,45.382,37.236
		c11.636,0,23.273-4.655,31.418-12.8c4.655-3.491,10.473-3.491,13.964-1.164C380.509,375.232,378.182,369.414,375.855,363.596z"/>
	<path style="fill:#123247;" d="M280.436,334.505c-1.164-5.818-5.818-9.309-11.636-9.309h-48.873
		c-5.818,0-10.473,4.655-11.636,9.309c-4.655,20.945-23.273,37.236-45.382,37.236c-11.636,0-23.273-4.655-31.418-12.8
		c-5.818-5.818-15.127-3.491-18.618,3.491c-6.982,19.782-17.455,44.218-17.455,44.218c-10.473,24.436-36.073,39.564-64,33.745
		c-11.636-2.327-22.109-9.309-29.091-18.618c4.655,19.782,19.782,37.236,40.727,41.891c27.927,5.818,53.527-8.145,64-33.745
		c0,0,10.473-24.436,17.455-43.055c3.491-8.145,12.8-9.309,18.618-3.491c8.145,6.982,19.782,11.636,31.418,11.636
		c22.109,0,40.727-16.291,45.382-37.236c1.164-5.818,5.818-9.309,11.636-9.309h48.873c2.327,0,4.655,1.164,6.982,2.327
		C283.927,346.141,281.6,340.323,280.436,334.505z"/>
	<path style="fill:#123247;" d="M506.182,357.777l-29.091-139.636c-2.327-10.473-6.982-19.782-12.8-27.927
		c0,1.164,1.164,3.491,1.164,4.655l29.091,140.8c3.491,15.127,4.655,31.418,5.818,47.709c0,26.764-16.291,52.364-43.055,58.182
		c-22.109,4.655-44.218-3.491-57.018-20.945c2.327,5.818,4.655,10.473,4.655,10.473c10.473,24.436,36.073,39.564,64,33.745
		C495.709,459.014,512,433.414,512,406.65C512,389.196,509.673,374.068,506.182,357.777z"/>
</g>
<circle style="fill:#70B7E5;" cx="349.091" cy="255.377" r="11.636"/>
<g>
	<circle style="fill:#687A8A;" cx="290.909" cy="220.468" r="11.636"/>
	<circle style="fill:#687A8A;" cx="256" cy="278.65" r="11.636"/>
	<circle style="fill:#687A8A;" cx="221.091" cy="220.468" r="11.636"/>
</g>
<circle style="fill:#F26A56;" cx="418.909" cy="255.377" r="11.636"/>
<circle style="fill:#89C763;" cx="384" cy="290.286" r="11.636"/>
<circle style="fill:#FFCB5B;" cx="384" cy="220.468" r="11.636"/>
<g>
	<path style="fill:#687A8A;" d="M162.909,243.741h-23.273v-23.273c0-6.982-4.655-11.636-11.636-11.636
		c-6.982,0-11.636,4.655-11.636,11.636v23.273H93.091c-6.982,0-11.636,4.655-11.636,11.636s4.655,11.636,11.636,11.636h23.273
		v23.273c0,6.982,4.655,11.636,11.636,11.636c6.982,0,11.636-4.655,11.636-11.636v-23.273h23.273
		c6.982,0,11.636-4.655,11.636-11.636S169.891,243.741,162.909,243.741z"/>
	<circle style="fill:#687A8A;" cx="337.455" cy="348.468" r="34.909"/>
</g>
<g>
	<path style="fill:#576D7E;" d="M356.073,318.214c3.491,5.818,4.655,11.636,4.655,18.618c0,19.782-15.127,34.909-34.909,34.909
		c-6.982,0-12.8-2.327-18.618-4.655c6.982,9.309,17.455,16.291,30.255,16.291c19.782,0,34.909-15.127,34.909-34.909
		C372.364,335.668,365.382,325.196,356.073,318.214z"/>
	<path style="fill:#576D7E;" d="M320,255.377c-3.491,0-5.818-2.327-5.818-5.818c0-34.909,29.091-64,64-64
		c3.491,0,5.818,2.327,5.818,5.818c0,3.491-2.327,5.818-5.818,5.818c-29.091,0-52.364,23.273-52.364,52.364
		C325.818,253.05,323.491,255.377,320,255.377z"/>
</g>
<path style="fill:#123247;" d="M389.818,325.196c-3.491,0-5.818-2.327-5.818-5.818c0-3.491,2.327-5.818,5.818-5.818
	c29.091,0,52.364-23.273,52.364-52.364c0-3.491,2.327-5.818,5.818-5.818c3.491,0,5.818,2.327,5.818,5.818
	C453.818,296.105,424.727,325.196,389.818,325.196z"/>
<path style="fill:#576D7E;" d="M64,255.377c-3.491,0-5.818-2.327-5.818-5.818c0-34.909,29.091-64,64-64
	c3.491,0,5.818,2.327,5.818,5.818c0,3.491-2.327,5.818-5.818,5.818c-29.091,0-52.364,23.273-52.364,52.364
	C69.818,253.05,67.491,255.377,64,255.377z"/>
<path style="fill:#123247;" d="M133.818,325.196c-3.491,0-5.818-2.327-5.818-5.818c0-3.491,2.327-5.818,5.818-5.818
	c29.091,0,52.364-23.273,52.364-52.364c0-3.491,2.327-5.818,5.818-5.818c3.491,0,5.818,2.327,5.818,5.818
	C197.818,296.105,168.727,325.196,133.818,325.196z"/>
<circle style="fill:#687A8A;" cx="174.545" cy="348.468" r="34.909"/>
<path style="fill:#576D7E;" d="M193.164,318.214c3.491,5.818,4.655,11.636,4.655,18.618c0,19.782-15.127,34.909-34.909,34.909
	c-6.982,0-12.8-2.327-18.618-4.655c6.982,9.309,17.455,16.291,30.255,16.291c19.782,0,34.909-15.127,34.909-34.909
	C209.455,335.668,202.473,325.196,193.164,318.214z"/>
<g>
</g>
<g>
</g>
<g>
</g>
<g>
</g>
<g>
</g>
<g>
</g>
<g>
</g>
<g>
</g>
<g>
</g>
<g>
</g>
<g>
</g>
<g>
</g>
<g>
</g>
<g>
</g>
<g>
</g>
</svg>
